<svg xmlns="http://www.w3.org/2000/svg" viewBox="0 0 731.06 634.54"><title>next</title><g id="Layer_2" data-name="Layer 2"><g id="Graphic_elemetns" data-name="Graphic elemetns"><polygon points="731.06 318.97 554.72 634.54 305.22 634.54 481.61 318.97 305.22 3.41 554.72 3.41 731.06 318.97"/><path d="M388.47,293.36a29.1,29.1,0,1,1-11.54,39.5A29.1,29.1,0,0,1,388.47,293.36Z"/><path d="M349.48,222.21a29.1,29.1,0,1,1-11.54,39.51A29.11,29.11,0,0,1,349.48,222.21Z"/><path d="M310.5,151.06A29.1,29.1,0,1,1,299,190.57,29.1,29.1,0,0,1,310.5,151.06Z"/><path d="M271.51,79.91A29.1,29.1,0,1,1,260,119.42,29.11,29.11,0,0,1,271.51,79.91Z"/><path d="M232.53,8.76A29.1,29.1,0,1,1,221,48.27,29.1,29.1,0,0,1,232.53,8.76Z"/><path d="M349.48,415.74a29.1,29.1,0,1,0-11.54-39.51A29.12,29.12,0,0,0,349.48,415.74Z"/><circle cx="324.48" cy="461.37" r="29.1" transform="translate(-146.5 151.01) rotate(-21.5)"/><path d="M271.51,558A29.11,29.11,0,1,0,260,518.53,29.12,29.12,0,0,0,271.51,558Z"/><path d="M232.53,629.19A29.11,29.11,0,1,0,221,589.68,29.1,29.1,0,0,0,232.53,629.19Z"/><path d="M284.94,293.36a29.1,29.1,0,1,1-11.54,39.5A29.1,29.1,0,0,1,284.94,293.36Z"/><path d="M246,222.21a29.1,29.1,0,1,1-11.53,39.51A29.1,29.1,0,0,1,246,222.21Z"/><path d="M207,151.06a29.1,29.1,0,1,1-11.54,39.51A29.09,29.09,0,0,1,207,151.06Z"/><path d="M168,79.91a29.1,29.1,0,1,1-11.54,39.51A29.1,29.1,0,0,1,168,79.91Z"/><path d="M129,8.76a29.1,29.1,0,1,1-11.54,39.51A29.11,29.11,0,0,1,129,8.76Z"/><path d="M246,415.74a29.1,29.1,0,1,0-11.53-39.51A29.11,29.11,0,0,0,246,415.74Z"/><path d="M207,486.89a29.11,29.11,0,1,0-11.54-39.51A29.1,29.1,0,0,0,207,486.89Z"/><path d="M168,558a29.1,29.1,0,1,0-11.54-39.51A29.1,29.1,0,0,0,168,558Z"/><path d="M129,629.19a29.11,29.11,0,1,0-11.54-39.51A29.12,29.12,0,0,0,129,629.19Z"/><path d="M171.06,288.18a29.11,29.11,0,1,1-11.54,39.51A29.1,29.1,0,0,1,171.06,288.18Z"/><path d="M132.08,217a29.1,29.1,0,1,1-11.54,39.51A29.1,29.1,0,0,1,132.08,217Z"/><path d="M93.09,145.88a29.11,29.11,0,1,1-11.54,39.51A29.12,29.12,0,0,1,93.09,145.88Z"/><path d="M54.11,74.73a29.1,29.1,0,1,1-11.54,39.51A29.1,29.1,0,0,1,54.11,74.73Z"/><path d="M15.12,3.59A29.1,29.1,0,1,1,3.59,43.09,29.1,29.1,0,0,1,15.12,3.59Z"/><path d="M132.08,410.56a29.1,29.1,0,1,0-11.54-39.5A29.1,29.1,0,0,0,132.08,410.56Z"/><path d="M93.09,481.71a29.1,29.1,0,1,0-11.54-39.5A29.11,29.11,0,0,0,93.09,481.71Z"/><path d="M54.11,552.86a29.1,29.1,0,1,0-11.54-39.5A29.1,29.1,0,0,0,54.11,552.86Z"/><circle cx="29.11" cy="598.49" r="29.1" transform="translate(-252.73 69.71) rotate(-25.27)"/></g></g></svg>