<svg xmlns="http://www.w3.org/2000/svg" viewBox="0 0 731.06 634.54"><title>prev</title><g id="Layer_2" data-name="Layer 2"><g id="Graphic_elemetns" data-name="Graphic elemetns"><polygon points="0 318.97 176.35 634.54 425.85 634.54 249.45 318.97 425.85 3.41 176.35 3.41 0 318.97"/><path d="M342.6,293.36a29.1,29.1,0,1,0,11.53,39.5A29.1,29.1,0,0,0,342.6,293.36Z"/><path d="M381.58,222.21a29.1,29.1,0,1,0,11.54,39.51A29.1,29.1,0,0,0,381.58,222.21Z"/><path d="M420.56,151.06a29.1,29.1,0,1,0,11.54,39.51A29.1,29.1,0,0,0,420.56,151.06Z"/><path d="M459.55,79.91a29.1,29.1,0,1,0,11.54,39.51A29.11,29.11,0,0,0,459.55,79.91Z"/><path d="M498.53,8.76a29.1,29.1,0,1,0,11.54,39.51A29.1,29.1,0,0,0,498.53,8.76Z"/><path d="M381.58,415.74a29.1,29.1,0,1,1,11.54-39.51A29.1,29.1,0,0,1,381.58,415.74Z"/><circle cx="406.58" cy="461.37" r="29.1" transform="translate(-171.69 670.59) rotate(-68.5)"/><path d="M459.55,558a29.11,29.11,0,1,1,11.54-39.51A29.12,29.12,0,0,1,459.55,558Z"/><path d="M498.53,629.19a29.1,29.1,0,1,1,11.54-39.51A29.1,29.1,0,0,1,498.53,629.19Z"/><path d="M446.12,293.36a29.1,29.1,0,1,0,11.54,39.5A29.1,29.1,0,0,0,446.12,293.36Z"/><path d="M485.11,222.21a29.1,29.1,0,1,0,11.53,39.51A29.11,29.11,0,0,0,485.11,222.21Z"/><path d="M524.09,151.06a29.1,29.1,0,1,0,11.54,39.51A29.1,29.1,0,0,0,524.09,151.06Z"/><path d="M563.08,79.91a29.1,29.1,0,1,0,11.53,39.51A29.1,29.1,0,0,0,563.08,79.91Z"/><path d="M602.06,8.76A29.1,29.1,0,1,0,613.6,48.27,29.09,29.09,0,0,0,602.06,8.76Z"/><path d="M485.11,415.74a29.1,29.1,0,1,1,11.53-39.51A29.12,29.12,0,0,1,485.11,415.74Z"/><path d="M524.09,486.89a29.11,29.11,0,1,1,11.54-39.51A29.1,29.1,0,0,1,524.09,486.89Z"/><path d="M563.08,558a29.11,29.11,0,1,1,11.53-39.51A29.11,29.11,0,0,1,563.08,558Z"/><path d="M602.06,629.19a29.11,29.11,0,1,1,11.54-39.51A29.1,29.1,0,0,1,602.06,629.19Z"/><path d="M560,288.18a29.1,29.1,0,1,0,11.54,39.51A29.1,29.1,0,0,0,560,288.18Z"/><path d="M599,217a29.11,29.11,0,1,0,11.53,39.51A29.11,29.11,0,0,0,599,217Z"/><path d="M638,145.88a29.11,29.11,0,1,0,11.54,39.51A29.1,29.1,0,0,0,638,145.88Z"/><path d="M677,74.73a29.1,29.1,0,1,0,11.54,39.51A29.1,29.1,0,0,0,677,74.73Z"/><path d="M715.94,3.59a29.1,29.1,0,1,0,11.54,39.5A29.1,29.1,0,0,0,715.94,3.59Z"/><path d="M599,410.56a29.1,29.1,0,1,1,11.53-39.5A29.1,29.1,0,0,1,599,410.56Z"/><path d="M638,481.71a29.1,29.1,0,1,1,11.54-39.5A29.1,29.1,0,0,1,638,481.71Z"/><path d="M677,552.86a29.1,29.1,0,1,1,11.54-39.5A29.1,29.1,0,0,1,677,552.86Z"/><circle cx="701.96" cy="598.49" r="29.1" transform="translate(-138.94 977.73) rotate(-64.73)"/></g></g></svg>